<?xml version="1.0" encoding="UTF-8"?>
<svg width="16px" height="16px" viewBox="0 0 16 16" version="1.1" xmlns="http://www.w3.org/2000/svg" xmlns:xlink="http://www.w3.org/1999/xlink">
    <title>_Atom/Icon/arrow-right</title>
    <g id="WP-Desk-design" stroke="none" stroke-width="1" fill="none" fill-rule="evenodd">
        <g id="import_export_2_6_czy_na_pewno_nadpisac" transform="translate(-677.000000, -303.000000)" fill="#2A374A" fill-rule="nonzero">
            <g id="Group-3" transform="translate(472.500000, 285.000000)">
                <g id="Icon-Color" transform="translate(200.500000, 14.000000)">
                    <path d="M12.7071068,4.29289319 L19.7071068,11.2928932 C19.7355731,11.3213595 19.7623312,11.3515341 19.787214,11.3832499 L19.7071068,11.2928932 C19.7425009,11.3282873 19.7746871,11.3656744 19.8036655,11.4046934 C19.8215099,11.4288693 19.8382813,11.453725 19.8539325,11.4793398 C19.8613931,11.4913869 19.8685012,11.5036056 19.8753289,11.5159379 C19.8862061,11.5357061 19.8966233,11.5561086 19.9063462,11.5769008 C19.914321,11.5939015 19.9218036,11.6112043 19.9287745,11.628664 C19.9366842,11.6484208 19.9438775,11.6682023 19.9504533,11.6882636 C19.9552713,11.7031487 19.9599023,11.7185367 19.9641549,11.734007 C19.9701663,11.7555635 19.9753602,11.7772539 19.9798348,11.7992059 C19.9832979,11.8166247 19.986372,11.834051 19.9889822,11.8515331 C19.9918877,11.8705042 19.9942339,11.890153 19.996002,11.909968 C19.9981344,11.9343349 19.9994007,11.9579802 19.9998325,11.9816379 C19.9999397,11.9872016 20,11.9935938 20,12 L19.9998139,12.0193545 C19.9993651,12.042681 19.9981051,12.0659949 19.9960336,12.0892501 L20,12 C20,12.0506203 19.9962388,12.1003621 19.9889806,12.1489612 C19.986372,12.165949 19.9832979,12.1833753 19.97976,12.2007258 C19.9753602,12.2227461 19.9701663,12.2444365 19.964279,12.2658396 C19.9599023,12.2814633 19.9552713,12.2968513 19.9502619,12.3121425 C19.9438775,12.3317977 19.9366842,12.3515792 19.928896,12.3710585 C19.9218036,12.3887957 19.914321,12.4060985 19.9063267,12.4232215 C19.8966233,12.4438914 19.8862061,12.4642939 19.8751242,12.4842769 C19.8685012,12.4963944 19.8613931,12.5086131 19.8540046,12.5207088 C19.8382813,12.546275 19.8215099,12.5711307 19.8036865,12.5951593 C19.7982466,12.602603 19.7927156,12.6098424 19.7870723,12.6170223 C19.7849289,12.6196628 19.7826279,12.6225624 19.7803112,12.625449 L19.7071068,12.7071068 L19.7071068,12.7071068 L12.7071068,19.7071068 C12.3165825,20.0976311 11.6834175,20.0976311 11.2928932,19.7071068 C10.9023689,19.3165825 10.9023689,18.6834175 11.2928932,18.2928932 L16.585,13 L4.99999997,13 C4.44771522,13 3.99999997,12.5522848 3.99999997,12 C3.99999997,11.4477152 4.44771522,11 4.99999997,11 L16.585,11 L11.2928932,5.70710675 C10.9023689,5.31658246 10.9023689,4.68341748 11.2928932,4.29289319 C11.6834175,3.90236889 12.3165825,3.90236889 12.7071068,4.29289319 Z"></path>
                </g>
            </g>
        </g>
    </g>
</svg>