<?xml version="1.0" encoding="UTF-8"?>
<svg width="200px" height="204px" viewBox="0 0 200 204" version="1.1" xmlns="http://www.w3.org/2000/svg" xmlns:xlink="http://www.w3.org/1999/xlink">
    <title>atom / icons / export</title>
    <g id="atom-/-icons-/-export" stroke="none" stroke-width="1" fill="none" fill-rule="evenodd">
        <g id="export" transform="translate(27.415205, 0.000000)" fill-rule="nonzero">
            <path d="M140.121354,0 L33.7894968,0 C32.9972876,0 32.236207,0.31439309 31.6759021,0.874697962 L1.07391747,31.4751263 C0.5136126,32.0354311 0.19921951,32.7965118 0.19921951,33.5887206 L0.19921951,201.012486 C0.19921951,202.662272 1.53772559,204.000778 3.18751216,204.000778 L140.121354,204.000778 C141.77114,204.000778 143.109646,202.662272 143.109646,201.012486 L143.109646,2.98829265 C143.109646,1.33850608 141.77114,0 140.121354,0 Z" id="Path" fill="#F8F8F8"></path>
            <path d="M140.121354,0 L130.957256,0 C132.607043,0 133.945549,1.33850608 133.945549,2.98829265 L133.945549,201.012486 C133.945549,202.662272 132.607043,204.000778 130.957256,204.000778 L140.121354,204.000778 C141.77114,204.000778 143.109646,202.662272 143.109646,201.012486 L143.109646,2.98829265 C143.109646,1.33850608 141.77114,0 140.121354,0 Z" id="Path" fill="#ECEDEF"></path>
            <path d="M33.4486445,0.0217896339 C32.780948,0.0980534522 32.155274,0.395326414 31.6759021,0.874697962 L1.07391747,31.4751263 C0.574312394,31.9762877 0.272370523,32.634646 0.211670729,33.3350269 L33.4486445,33.3350269 L33.4486445,0.0217896339 Z" id="Path" fill="#45B0E3"></path>
            <g id="Group" transform="translate(19.921951, 51.797073)" fill="#D0CFD1">
                <path d="M32.5832848,6.23961721 L3.74937333,6.23961721 C2.09958677,6.23961721 0.761080685,4.90266783 0.761080685,3.25132456 C0.761080685,1.60153799 2.09958677,0.26303191 3.74937333,0.26303191 L32.5832848,0.26303191 C34.2330714,0.26303191 35.5715774,1.60153799 35.5715774,3.25132456 C35.5715774,4.90266783 34.2330714,6.23961721 32.5832848,6.23961721 Z" id="Path"></path>
                <path d="M92.1748207,32.6502098 L3.32136297,32.6502098 C1.671576,32.6502098 0.333070317,31.3117041 0.333070317,29.6619172 C0.333070317,28.012131 1.671576,26.6736245 3.32136297,26.6736245 L92.1748207,26.6736245 C93.8246073,26.6736245 95.1631134,28.012131 95.1631134,29.6619172 C95.1631134,31.3117041 93.8261636,32.6502098 92.1748207,32.6502098 Z" id="Path"></path>
                <path d="M92.1748207,44.8508485 L3.32136297,44.8508485 C1.671576,44.8508485 0.333070317,43.5138991 0.333070317,41.8625558 C0.333070317,40.2127693 1.671576,38.8742632 3.32136297,38.8742632 L92.1748207,38.8742632 C93.8246073,38.8742632 95.1631134,40.2127693 95.1631134,41.8625558 C95.1631134,43.5138991 93.8261636,44.8508485 92.1748207,44.8508485 Z" id="Path"></path>
            </g>
            <path d="M171.383253,163.984115 L147.518935,142.133782 C146.804546,141.481649 145.831794,141.231069 144.907291,141.417837 C144.311189,141.294881 143.680846,141.347799 143.101864,141.603049 C142.017052,142.080864 141.316671,143.153225 141.316671,144.337648 L141.316671,152.922764 L60.1767432,152.922764 C58.5254004,152.922764 57.1884506,154.261269 57.1884506,155.911056 L57.1884506,176.46335 C57.1884506,178.114693 58.5254004,179.451643 60.1767432,179.451643 L141.316671,179.451643 L141.316671,188.036759 C141.316671,189.221181 142.017052,190.295098 143.101864,190.771358 C143.487852,190.942562 143.898742,191.025051 144.304963,191.025051 C144.505739,191.025051 144.703402,191.003261 144.899509,190.964352 C145.098729,191.004818 145.299504,191.025051 145.50028,191.025051 C146.233346,191.025051 146.957073,190.755793 147.518935,190.240624 L171.383253,168.391847 C172.001144,167.825317 172.352891,167.025326 172.352891,166.187981 C172.352891,165.349081 172.001144,164.550646 171.383253,163.984115 L171.383253,163.984115 Z" id="Path" fill="#EA2327"></path>
            <path d="M112.34424,106.518625 L22.9974022,106.518625 C21.3460593,106.518625 20.0091095,107.855575 20.0091095,109.506918 L20.0091095,130.99461 C20.0091095,132.644396 21.3460593,133.982902 22.9974022,133.982902 L112.34424,133.982902 C113.994026,133.982902 115.332532,132.644396 115.332532,130.99461 L115.332532,109.506918 C115.332532,107.855575 113.994026,106.518625 112.34424,106.518625 Z" id="Path" fill="#45B0E3"></path>
            <path d="M171.383253,163.984115 L147.518935,142.133782 C146.804546,141.481649 145.831794,141.231069 144.907291,141.417837 C144.311189,141.294881 143.680846,141.347799 143.101864,141.603049 C142.017052,142.080864 141.316671,143.153225 141.316671,144.337648 L141.316671,144.846591 L162.219155,163.984115 C162.837047,164.54909 163.188794,165.349081 163.188794,166.187981 C163.188794,167.025326 162.837047,167.825317 162.219155,168.391847 L141.316671,187.529371 L141.316671,188.036759 C141.316671,189.222737 142.017052,190.295098 143.101864,190.772914 C143.487852,190.942562 143.898742,191.025051 144.304963,191.025051 C144.505739,191.025051 144.703402,191.003261 144.899509,190.964352 C145.098729,191.004818 145.299504,191.025051 145.50028,191.025051 C146.233346,191.025051 146.957073,190.755793 147.518935,190.242181 L171.383253,168.391847 C172.001144,167.825317 172.352891,167.025326 172.352891,166.187981 C172.352891,165.349081 172.001144,164.550646 171.383253,163.984115 L171.383253,163.984115 Z" id="Path" fill="#EA2327"></path>
            <path d="M112.34424,106.518625 L103.180142,106.518625 C104.829929,106.518625 106.168435,107.855575 106.168435,109.506918 L106.168435,130.99461 C106.168435,132.644396 104.829929,133.982902 103.180142,133.982902 L112.34424,133.982902 C113.994026,133.982902 115.332532,132.644396 115.332532,130.99461 L115.332532,109.506918 C115.332532,107.855575 113.994026,106.518625 112.34424,106.518625 Z" id="Path" fill="#45B0E3"></path>
        </g>
    </g>
</svg>