<?xml version="1.0" encoding="UTF-8"?>
<svg width="200px" height="204px" viewBox="0 0 200 204" version="1.1" xmlns="http://www.w3.org/2000/svg" xmlns:xlink="http://www.w3.org/1999/xlink">
    <title>atom / icons / import</title>
    <g id="atom-/-icons-/-import" stroke="none" stroke-width="1" fill="none" fill-rule="evenodd">
        <g id="file-(1)" transform="translate(28.000000, 0.000000)" fill-rule="nonzero">
            <path d="M139.9216,0 L33.5901491,0 C32.7963867,0 32.0368652,0.314391891 31.4765625,0.874694625 L0.874694625,31.4750062 C0.314391891,32.0353089 0,32.7963867 0,33.5885924 L0,201.011719 C0,202.661499 1.33850098,204 2.98828125,204 L139.9216,204 C141.571381,204 142.909881,202.661499 142.909881,201.011719 L142.909881,2.98828125 C142.909881,1.33850098 141.571381,0 139.9216,0 Z" id="Path" fill="#F8F8F8"></path>
            <path d="M139.9216,0 L130.757538,0 C132.407318,0 133.745819,1.33850098 133.745819,2.98828125 L133.745819,201.011719 C133.745819,202.661499 132.407318,204 130.757538,204 L139.9216,204 C141.571381,204 142.909881,202.661499 142.909881,201.011719 L142.909881,2.98828125 C142.909881,1.33850098 141.571381,0 139.9216,0 Z" id="Path" fill="#ECEDEF"></path>
            <path d="M33.2492982,0.0217895508 C32.5816042,0.0980530781 31.9559326,0.395324906 31.4765625,0.874694625 L0.874694625,31.4750062 C0.375091453,31.9761657 0.0731507344,32.6345215 0.0124511719,33.3348997 L33.2492982,33.3348997 L33.2492982,0.0217895508 Z" id="Path" fill="#D0CFD1"></path>
            <path d="M122.388794,131.299164 L103.201538,131.299164 C101.550202,131.299164 100.213257,132.637665 100.213257,134.287445 L100.213257,148.165833 L42.8009033,148.165833 L42.8009033,134.287445 C42.8009033,132.637665 41.4639586,131.299164 39.8126221,131.299164 L20.6253662,131.299164 C18.9740296,131.299164 17.637085,132.637665 17.637085,134.287445 L17.637085,150.368133 C17.5686035,150.618714 17.5328063,150.881744 17.5328063,151.154114 L17.5328063,170.34137 C17.5328063,171.99115 18.869751,173.329651 20.5210875,173.329651 L122.328094,173.329651 C123.977875,173.329651 125.316376,171.99115 125.316376,170.34137 L125.316376,164.805267 C125.356842,164.609161 125.378631,164.40683 125.378631,164.198273 L125.378631,134.287445 C125.377075,132.637665 124.040131,131.299164 122.388794,131.299164 L122.388794,131.299164 Z" id="Path" fill="#45B0E3"></path>
            <path d="M96.0390013,106.775024 C95.5627441,105.690216 94.4888308,104.991394 93.3044127,104.991394 L84.7193297,104.991394 L84.7193297,55.7252197 C84.7193297,54.0738832 83.3823855,52.7369385 81.7310485,52.7369385 L61.178833,52.7369385 C59.5290527,52.7369385 58.1905518,54.0738832 58.1905518,55.7252197 L58.1905518,104.991394 L49.6054688,104.991394 C48.4210511,104.991394 47.348694,105.690216 46.8708802,106.775024 C46.3930664,107.858276 46.6016237,109.123627 47.4016113,109.996765 L69.2518617,133.860993 C69.81839,134.478882 70.6168213,134.830628 71.4557191,134.830628 C72.2946165,134.830628 73.0930482,134.478882 73.6595765,133.860993 L95.5098269,109.996765 C96.3082582,109.123627 96.5168151,107.858276 96.0390013,106.775024 L96.0390013,106.775024 Z" id="Path" fill="#EA2327"></path>
            <path d="M33.6368408,134.287445 L33.6368408,148.165833 L42.8009033,148.165833 L42.8009033,134.287445 C42.8009033,132.637665 41.4639586,131.299164 39.8126221,131.299164 L30.6485596,131.299164 C32.2998961,131.299164 33.6368408,132.637665 33.6368408,134.287445 L33.6368408,134.287445 Z" id="Path" fill="#45B0E3"></path>
            <path d="M122.388794,131.299164 L113.224731,131.299164 C114.876068,131.299164 116.213013,132.637665 116.213013,134.287445 L116.213013,164.198273 C116.213013,164.40683 116.19278,164.609161 116.152313,164.805267 L116.152313,170.34137 C116.152313,171.99115 114.813812,173.329651 113.164032,173.329651 L122.328094,173.329651 C123.977875,173.329651 125.316376,171.99115 125.316376,170.34137 L125.316376,164.805267 C125.356842,164.609161 125.377075,164.40683 125.377075,164.198273 L125.377075,134.287445 C125.377075,132.637665 124.040131,131.299164 122.388794,131.299164 Z" id="Path" fill="#45B0E3"></path>
            <path d="M96.0390013,106.775024 C95.5627441,105.690216 94.4888308,104.991394 93.3044127,104.991394 L84.7193297,104.991394 L84.7193297,55.7252197 C84.7193297,54.0738832 83.3823855,52.7369385 81.7310485,52.7369385 L72.566986,52.7369385 C74.218323,52.7369385 75.5552672,54.0738832 75.5552672,55.7252197 L75.5552672,104.991394 L84.1403502,104.991394 C85.3247683,104.991394 86.3986816,105.690216 86.8749388,106.775024 C87.3527526,107.858276 87.1441957,109.123627 86.3442077,109.996765 L66.8721315,131.263366 L69.2503054,133.860993 C69.8168333,134.478882 70.6168213,134.830628 71.4541628,134.830628 C72.2930602,134.830628 73.0930482,134.478882 73.6580202,133.860993 L95.5082702,109.996765 C96.3082582,109.123627 96.5168151,107.858276 96.0390013,106.775024 L96.0390013,106.775024 Z" id="Path" fill="#EA2327"></path>
        </g>
    </g>
</svg>